<?xml version="1.0" encoding="utf-8"?>
<!-- Generator: Adobe Illustrator 18.1.0, SVG Export Plug-In . SVG Version: 6.00 Build 0)  -->
<svg version="1.1" id="Layer_1" xmlns="http://www.w3.org/2000/svg" xmlns:xlink="http://www.w3.org/1999/xlink" x="0px" y="0px"
	 viewBox="-235.9 239 22.2 24" enable-background="new -235.9 239 22.2 24" xml:space="preserve">
<g opacity="5.000000e-02">
	<path d="M-218.6,262.2h-12.5c-2.1,0-3.8-1.7-3.8-3.8v-15c0-2.1,1.7-3.8,3.8-3.8h12.5c2.1,0,3.8,1.7,3.8,3.8v15
		C-214.8,260.6-216.5,262.2-218.6,262.2z M-231.1,242.2c-0.7,0-1.2,0.6-1.2,1.2v15c0,0.7,0.6,1.2,1.2,1.2h12.5
		c0.7,0,1.2-0.6,1.2-1.2v-15c0-0.7-0.6-1.2-1.2-1.2H-231.1z M-219.8,249.8h-10c-0.3,0-0.6-0.3-0.6-0.6s0.3-0.6,0.6-0.6h10
		c0.3,0,0.6,0.3,0.6,0.6S-219.5,249.8-219.8,249.8z M-219.8,246h-10c-0.3,0-0.6-0.3-0.6-0.6s0.3-0.6,0.6-0.6h10
		c0.3,0,0.6,0.3,0.6,0.6S-219.5,246-219.8,246z M-219.8,253.5h-10c-0.3,0-0.6-0.3-0.6-0.6s0.3-0.6,0.6-0.6h10c0.3,0,0.6,0.3,0.6,0.6
		S-219.5,253.5-219.8,253.5z M-219.8,257.2h-10c-0.3,0-0.6-0.3-0.6-0.6s0.3-0.6,0.6-0.6h10c0.3,0,0.6,0.3,0.6,0.6
		S-219.5,257.2-219.8,257.2z"/>
</g>
</svg>
