<?xml version="1.0" encoding="utf-8"?>
<!-- Generator: Adobe Illustrator 18.1.0, SVG Export Plug-In . SVG Version: 6.00 Build 0)  -->
<svg version="1.1" id="Layer_1" xmlns="http://www.w3.org/2000/svg" xmlns:xlink="http://www.w3.org/1999/xlink" x="0px" y="0px"
	 viewBox="0 0 850 1100" enable-background="new 0 0 850 1100" xml:space="preserve">
<g>
	<rect x="2" y="2" fill="#FFFFFF" width="846" height="1096"/>
	<path fill="#231F20" d="M846,4v1092H4V4H846 M850,0H0v1100h850V0L850,0z"/>
</g>
<g>
	<rect x="100.2" y="100" opacity="0.25" width="153.9" height="23"/>
	<rect x="100.2" y="163.3" opacity="0.25" width="99.3" height="23"/>
	<rect x="100.2" y="230.2" opacity="0.25" width="189.4" height="23"/>
</g>
<g>
	<rect x="560.2" y="100" opacity="0.25" width="153.9" height="23"/>
	<rect x="560.2" y="163.3" opacity="0.25" width="99.3" height="23"/>
	<rect x="560.2" y="230.2" opacity="0.25" width="189.4" height="23"/>
</g>
<rect x="99.9" y="445.2" opacity="0.25" width="532.7" height="23"/>
<rect x="99.9" y="509.2" opacity="0.25" width="231" height="23"/>
<rect x="99.9" y="573.9" opacity="0.25" width="409.8" height="23"/>
<rect x="99.9" y="638.6" opacity="0.25" width="329.4" height="23"/>
<rect x="99.9" y="703.3" opacity="0.25" width="329.4" height="23"/>
<rect x="459.4" y="834" opacity="0.25" width="289.9" height="46"/>
</svg>
